:FULLY-SPECIFIED
:FORCE-ALL-JOINTS-BE-3DOF
:DEGREES
1
root -2.95645 16.8291 -36.2757 3.79203 -0.409345 -2.77144
lfemur -18.1857 -3.85478 -7.37129
ltibia 37.6337 0 0
lfoot -17.8071 6.78532 0
ltoes -26.1578 0 0
rfemur -19.1521 0.15077 14.7318
rtibia 40.3652 0 0
rfoot -23.1652 -2.86285 0
rtoes -21.0274 0 0
lowerback 7.02591 2.55716 -1.97249
upperback -3.14202 3.31583 1.27229
thorax -7.43554 1.75645 1.99661
lowerneck -4.68188 -4.04088 -6.84108
upperneck 4.69893 -5.30737 6.47589
head 2.76948 -2.5844 3.14763
lclavicle 1.91563e-15 -9.24349e-15 0
lhumerus -27.0689 -5.33108 89.6453
lradius 25.7364 0 0
lwrist -30.6252 0 0
lhand -28.8405 29.9909 0
lfingers 7.12502 0 0
lthumb -2.19771 59.9594 0
rclavicle 1.91563e-15 -9.24349e-15 0
rhumerus -32.8355 4.71181 -81.727
rradius 32.9783 0 0
rwrist 3.84135 0 0
rhand -24.1523 -25.0894 0
rfingers 7.12502 0 0
rthumb 2.33029 -55.0564 0
2
root -2.95647 16.8281 -36.2789 3.83496 -0.515041 -2.77044
lfemur -18.1576 -3.63089 -7.40933
ltibia 37.669 -0 0
lfoot -17.8268 6.80424 -7.17238e-05
ltoes -25.9331 0 0
rfemur -19.1576 0.0416868 14.7346
rtibia 40.4172 -0 0
rfoot -23.1265 -2.64448 0.00147721
rtoes -20.5814 0 0
lowerback 7.0168 2.56529 -1.92512
upperback -3.13081 3.33086 1.26317
thorax -7.41553 1.76102 1.95907
lowerneck -4.72931 -3.99134 -6.7546
upperneck 4.68931 -5.23907 6.40124
head 2.76328 -2.55005 3.10787
lclavicle 5.93256e-14 2.27111e-14 0
lhumerus -27.0233 -5.3365 89.6327
lradius 25.816 0 0
lwrist -30.5008 0 0
lhand -28.8143 30.0141 0
lfingers 7.12502 0 0
lthumb -2.17236 59.9828 0
rclavicle 5.93256e-14 2.27111e-14 0
rhumerus -32.691 4.65476 -81.7097
rradius 32.7912 0 0
rwrist 3.85859 0 0
rhand -24.0097 -25.3916 0
rfingers 7.12502 0 0
rthumb 2.46795 -55.3571 0
3
root -2.95654 16.8272 -36.2808 3.87536 -0.609706 -2.74215
lfemur -18.1297 -3.40699 -7.44725
ltibia 37.7043 -0 0
lfoot -17.8466 6.82316 -0.000136927
ltoes -25.7084 0 0
rfemur -19.1631 -0.0673983 14.7374
rtibia 40.4692 -0 0
rfoot -23.0877 -2.42609 0.00280689
rtoes -20.1353 0 0
lowerback 6.97964 2.56886 -1.91256
upperback -3.12187 3.33669 1.25357
thorax -7.38337 1.76276 1.94295
lowerneck -4.65596 -3.96919 -6.78933
upperneck 4.65659 -5.21207 6.43618
head 2.73923 -2.5375 3.12874
lclavicle -3.03558e-14 -2.85753e-14 0
lhumerus -26.9602 -5.21976 89.6094
lradius 25.838 0 0
lwrist -30.4581 0 0
lhand -28.8295 30.1147 0
lfingers 7.12502 0 0
lthumb -2.18701 60.0832 0
rclavicle -3.03558e-14 -2.85753e-14 0
rhumerus -32.599 4.59256 -81.6813
rradius 32.6643 0 0
rwrist 3.86008 0 0
rhand -23.8685 -25.3572 0
rfingers 7.12502 0 0
rthumb 2.60437 -55.3211 0
4
root -2.95608 16.8264 -36.2839 3.91591 -0.691332 -2.68194
lfemur -18.1019 -3.18307 -7.48506
ltibia 37.7396 -0 0
lfoot -17.8663 6.84209 -0.000195611
ltoes -25.4836 0 0
rfemur -19.1686 -0.176485 14.7402
rtibia 40.5212 -0 0
rfoot -23.049 -2.20769 0.00398898
rtoes -19.6893 0 0
lowerback 6.97732 2.56488 -1.92358
upperback -3.12468 3.32854 1.22857
thorax -7.38364 1.75861 1.92401
lowerneck -4.67577 -3.93993 -6.77722
upperneck 4.69449 -5.17403 6.43694
head 2.75249 -2.51803 3.12843
lclavicle -9.73579e-15 9.44227e-16 0
lhumerus -26.9402 -5.14266 89.5811
lradius 25.875 0 0
lwrist -30.424 0 0
lhand -28.9233 30.0297 0
lfingers 7.12502 0 0
lthumb -2.27764 59.9973 0
rclavicle -9.73579e-15 9.44227e-16 0
rhumerus -32.5377 4.54401 -81.6659
rradius 32.5541 0 0
rwrist 3.86469 0 0
rhand -23.8239 -25.143 0
rfingers 7.12502 0 0
rthumb 2.64745 -55.1063 0
5
root -2.9567 16.8246 -36.2864 3.93099 -0.778759 -2.70931
lfemur -18.0743 -2.95913 -7.52275
ltibia 37.775 -0 0
lfoot -17.8861 6.86101 -0.000247774
ltoes -25.2589 0 0
rfemur -19.1741 -0.285573 14.743
rtibia 40.5732 -0 0
rfoot -23.0102 -1.98928 0.00502343
rtoes -19.2433 0 0
lowerback 6.9958 2.57611 -1.85729
upperback -3.12063 3.34971 1.22615
thorax -7.38683 1.76566 1.88076
lowerneck -4.69782 -3.92264 -6.7611
upperneck 4.7339 -5.15184 6.43111
head 2.76744 -2.50652 3.12428
lclavicle 3.53371e-14 1.84373e-14 0
lhumerus -26.8952 -5.05649 89.5713
lradius 25.9147 0 0
lwrist -30.3058 0 0
lhand -28.8084 30.0504 0
lfingers 7.12502 0 0
lthumb -2.16669 60.0192 0
rclavicle 3.53371e-14 1.84373e-14 0
rhumerus -32.48 4.47578 -81.6329
rradius 32.4548 0 0
rwrist 3.83828 0 0
rhand -23.7654 -25.2923 0
rfingers 7.12502 0 0
rthumb 2.70389 -55.2549 0
